<?xml version="1.0" encoding="UTF-8" standalone="no"?>
<!-- Created with Inkscape (http://www.inkscape.org/) -->

<svg
   xmlns:dc="http://purl.org/dc/elements/1.1/"
   xmlns:cc="http://creativecommons.org/ns#"
   xmlns:rdf="http://www.w3.org/1999/02/22-rdf-syntax-ns#"
   xmlns:svg="http://www.w3.org/2000/svg"
   xmlns="http://www.w3.org/2000/svg"
   xmlns:sodipodi="http://sodipodi.sourceforge.net/DTD/sodipodi-0.dtd"
   xmlns:inkscape="http://www.inkscape.org/namespaces/inkscape"
   version="1.1"
   id="svg2"
   xml:space="preserve"
   width="4000"
   height="2370.2134"
   viewBox="0 0 4000 2370.2134"
   sodipodi:docname="Aligned Assets Logo - without slogan V2.svg"
   inkscape:version="0.92.4 (5da689c313, 2019-01-14)"
   inkscape:export-filename="K:\Logos &amp; Images\01 - Logos\Aligned Assets Logo\EPS files\Aligned Assets Logo v2.png"
   inkscape:export-xdpi="119.98"
   inkscape:export-ydpi="119.98"><metadata
     id="metadata8"><rdf:RDF><cc:Work
         rdf:about=""><dc:format>image/svg+xml</dc:format><dc:type
           rdf:resource="http://purl.org/dc/dcmitype/StillImage" /><dc:title></dc:title></cc:Work></rdf:RDF></metadata><defs
     id="defs6"><clipPath
       clipPathUnits="userSpaceOnUse"
       id="clipPath24"><path
         d="M 0,1777.661 H 3000 V 0 H 0 Z"
         id="path22"
         inkscape:connector-curvature="0" /></clipPath></defs><sodipodi:namedview
     pagecolor="#ffffff"
     bordercolor="#666666"
     borderopacity="1"
     objecttolerance="10"
     gridtolerance="10"
     guidetolerance="10"
     inkscape:pageopacity="0"
     inkscape:pageshadow="2"
     inkscape:window-width="1920"
     inkscape:window-height="1017"
     id="namedview4"
     showgrid="false"
     inkscape:zoom="0.16610026"
     inkscape:cx="2896.1654"
     inkscape:cy="1186.2046"
     inkscape:window-x="1912"
     inkscape:window-y="-8"
     inkscape:window-maximized="1"
     inkscape:current-layer="layer1" /><g
     id="g10"
     inkscape:groupmode="layer"
     inkscape:label="Logo without slogan"
     transform="matrix(1.3333333,0,0,-1.3333333,0,2370.2133)"><g
       id="g1100"
       transform="translate(0.08126782,3.0756376)"><g
         transform="matrix(0.90642027,0,0,0.90642027,1166.4781,1193.2359)"
         id="g12"><path
           inkscape:connector-curvature="0"
           id="path14"
           style="fill:#231f20;fill-opacity:1;fill-rule:nonzero;stroke:none"
           d="M 0,0 120.639,119.46 V -481.191 H 0 Z" /></g><path
         inkscape:connector-curvature="0"
         id="path16"
         style="fill:#231f20;fill-opacity:1;fill-rule:nonzero;stroke:none;stroke-width:0.90642029"
         d="m 1345.2956,1140.5979 h 109.3659 V 757.0743 h -109.3659 z" /><g
         transform="matrix(0.90642027,0,0,0.90642027,140.28841,80.100542)"
         id="g18"><g
           clip-path="url(#clipPath24)"
           id="g20"><g
             transform="translate(1536.1689,849.6104)"
             id="g26"><path
               inkscape:connector-curvature="0"
               id="path28"
               style="fill:#231f20;fill-opacity:1;fill-rule:nonzero;stroke:none"
               d="m 0,0 c 0,-56.395 21.206,-103.707 97.026,-103.707 35.849,0 63.591,13.279 82.335,39.01 h 1.636 v -68.342 c 0,-22.414 -8.957,-28.24 -30.984,-28.24 -21.997,0 -79.617,0.377 -79.617,0.377 l -95.183,-95.248 c 0,0 121.121,-0.166 163.38,-0.166 110.058,0 163.07,22.38 163.07,118.623 V 322.721 H 189.952 v -38.98 h -1.639 C 162.247,319.413 135.347,329.363 88.06,329.363 31.806,329.363 0,291.199 0,218.199 Z m 120.666,211.555 c 0,18.256 8.167,24.896 30.163,24.896 22.023,0 30.168,-6.64 30.168,-24.896 V 9.143 c 0,-18.278 -8.145,-24.899 -30.168,-24.899 -21.996,0 -30.163,6.621 -30.163,24.899 z" /></g><g
             transform="translate(1914.4277,1172.3311)"
             id="g30"><path
               inkscape:connector-curvature="0"
               id="path32"
               style="fill:#231f20;fill-opacity:1;fill-rule:nonzero;stroke:none"
               d="m 0,0 h 120.681 v -46.451 h 1.635 c 8.969,19.069 20.366,32.346 34.231,40.655 13.875,8.282 30.99,12.439 50.557,12.439 52.984,0 94.574,-24.067 94.574,-97.058 V -423.119 H 181.016 v 302.836 c 0,18.245 -8.166,29.035 -30.985,29.035 -21.206,0 -29.35,-10.79 -29.35,-29.035 V -423.119 H 0 Z" /></g><g
             transform="translate(2284.5791,877.0205)"
             id="g34"><path
               inkscape:connector-curvature="0"
               id="path36"
               style="fill:#231f20;fill-opacity:1;fill-rule:nonzero;stroke:none"
               d="m 0,0 c 0,-113.688 55.434,-134.428 158.951,-134.428 50.708,0 177.634,0.629 177.634,0.629 l -91.161,90.344 c 0,0 -58.573,0.838 -82.236,0.838 -30.962,0 -37.672,6.783 -37.672,29.201 v 67.34 h 192.442 v 131.053 c 0,66.375 -26.921,116.976 -159.007,116.976 C 55.434,301.953 0,281.205 0,167.546 Z m 125.516,194.098 c 0,17.429 5.739,24.895 33.435,24.895 27.734,0 33.442,-7.466 33.442,-24.895 v -62.237 h -66.877 z" /></g><g
             transform="translate(2670.9941,857.9131)"
             id="g38"><path
               inkscape:connector-curvature="0"
               id="path40"
               style="fill:#231f20;fill-opacity:1;fill-rule:nonzero;stroke:none"
               d="m 0,0 c 0,-86.285 23.643,-115.32 96.989,-115.32 43.242,0 64.425,6.619 88.078,50.623 h 1.637 v -44.004 H 301.645 V 491.95 L 180.953,372.49 v -95.402 h -1.615 C 159.785,305.291 133.699,321.061 90.494,321.061 39.116,321.061 0,301.133 0,235.607 Z m 125.525,199.938 c 0,15.752 9.805,23.232 27.746,23.232 17.931,0 27.682,-7.48 27.682,-23.232 V 5.816 c 0,-15.752 -9.751,-23.254 -27.682,-23.254 -17.941,0 -27.746,7.502 -27.746,23.254 z" /></g><g
             transform="translate(2057.5264,242.7354)"
             id="g42"><path
               inkscape:connector-curvature="0"
               id="path44"
               style="fill:#231f20;fill-opacity:1;fill-rule:nonzero;stroke:none"
               d="m 0,0 c 0,-113.635 55.438,-134.385 158.97,-134.385 50.669,0 177.634,0.586 177.634,0.586 l -91.185,90.389 c 0,0 -58.582,0.838 -82.223,0.838 -30.998,0 -37.662,6.787 -37.662,29.207 v 67.291 h 192.424 v 131.082 c 0,66.367 -26.924,116.988 -158.988,116.988 C 55.438,301.996 0,281.25 0,167.57 Z m 125.534,194.141 c 0,17.429 5.731,24.879 33.436,24.879 27.728,0 33.424,-7.45 33.424,-24.879 v -62.192 h -66.86 z" /></g><g
             transform="translate(1433.1553,199.6963)"
             id="g46"><path
               inkscape:connector-curvature="0"
               id="path48"
               style="fill:#231f20;fill-opacity:1;fill-rule:nonzero;stroke:none"
               d="m 0,0 h 71.968 c 21.997,0 25.96,12.955 25.96,34.662 0,35.736 -5.723,37.33 -65.218,46.475 -84.819,12.433 -105.182,40.642 -105.182,122.767 0,123.617 30.973,141.049 141.864,141.049 110.288,0 163.461,-0.34 163.461,-0.34 L 145.23,256.996 H 75.907 c -22.837,0 -27.721,-14.758 -27.721,-33.189 0,-28.198 4.884,-34.86 54.615,-42.28 95.379,-14.961 114.15,-29.037 115.786,-121.98 2.425,-131.912 -44.869,-150.971 -142.68,-150.971 -30.761,0 -167.992,0.242 -167.992,0.242 z" /></g><g
             transform="translate(1781.7852,199.6963)"
             id="g50"><path
               inkscape:connector-curvature="0"
               id="path52"
               style="fill:#231f20;fill-opacity:1;fill-rule:nonzero;stroke:none"
               d="m 0,0 h 71.968 c 21.999,0 25.957,12.955 25.957,34.662 0,35.736 -5.714,37.33 -65.221,46.475 -84.792,12.433 -105.171,40.642 -105.171,122.767 0,123.617 30.961,141.049 141.856,141.049 110.273,0 163.447,-0.34 163.447,-0.34 L 145.214,256.996 H 75.907 c -22.837,0 -27.733,-14.758 -27.733,-33.189 0,-28.198 4.896,-34.86 54.634,-42.28 95.387,-14.961 114.144,-29.037 115.776,-121.98 2.425,-131.912 -44.846,-150.971 -142.677,-150.971 -30.761,0 -167.968,0.242 -167.968,0.242 z" /></g><g
             transform="translate(2765.0996,199.6963)"
             id="g54"><path
               inkscape:connector-curvature="0"
               id="path56"
               style="fill:#231f20;fill-opacity:1;fill-rule:nonzero;stroke:none"
               d="m 0,0 h 71.98 c 22.001,0 25.941,12.955 25.941,34.662 0,35.736 -5.699,37.33 -65.199,46.475 -84.792,12.433 -105.167,40.642 -105.167,122.767 0,123.617 30.954,141.049 141.839,141.049 110.304,0 163.477,-0.34 163.477,-0.34 L 145.247,256.996 H 75.929 c -22.844,0 -27.725,-14.758 -27.725,-33.189 0,-28.198 4.881,-34.86 54.618,-42.28 C 198.215,166.566 216.963,152.49 218.61,59.547 221.037,-72.365 173.729,-91.424 75.929,-91.424 c -30.76,0 -167.972,0.242 -167.972,0.242 z" /></g><g
             transform="translate(2425.3926,537.9854)"
             id="g58"><path
               inkscape:connector-curvature="0"
               id="path60"
               style="fill:#231f20;fill-opacity:1;fill-rule:nonzero;stroke:none"
               d="M 0,0 H 34.24 V 27.313 L 154.891,147.996 V 0 h 70.099 v -92.902 h -70.099 v -211.565 c 0,-21.578 4.878,-32.353 30.979,-32.353 10.589,0 21.19,1.675 30.973,2.478 v -92.064 c -22.841,-0.838 -51.368,-3.307 -76.64,-3.307 -73.37,0 -105.963,28.203 -105.963,92.893 V -92.902 H 0 Z" /></g><g
             transform="translate(1006.126,716.7822)"
             id="g62"><path
               inkscape:connector-curvature="0"
               id="path64"
               style="fill:#231f20;fill-opacity:1;fill-rule:nonzero;stroke:none"
               d="M 0,0 -334.992,608.269 -669.965,0 l -40.915,-74.334 73.054,-132.625 220.58,-400.506 752.235,-0.803 z" /></g><g
             transform="translate(241.9873,545.0244)"
             id="g66"><path
               inkscape:connector-curvature="0"
               id="path68"
               style="fill:#1a5dad;fill-opacity:1;fill-rule:nonzero;stroke:none"
               d="M 0,0 119.986,-217.855 239.954,-435.707 H 0 -239.958 l 119.99,217.852 z" /></g><g
             transform="translate(1243,1514.7373)"
             id="g70"><path
               inkscape:connector-curvature="0"
               id="path72"
               style="fill:#1a5dad;fill-opacity:1;fill-rule:nonzero;stroke:none"
               d="m 0,0 c 0,85.409 69.24,154.651 154.643,154.651 85.414,0 154.66,-69.242 154.66,-154.651 0,-85.426 -69.246,-154.654 -154.66,-154.654 C 69.24,-154.654 0,-85.426 0,0" /></g><g
             transform="translate(1290.8926,1500.2783)"
             id="g74"><path
               inkscape:connector-curvature="0"
               id="path76"
               style="fill:#94a0ce;fill-opacity:1;fill-rule:nonzero;stroke:none"
               d="m 0,0 c 5.303,-10.497 -2.093,-13.389 -5.531,-21.963 -3.057,-7.701 1.237,-14.544 4.9,-20.985 3.8,-6.7 5.662,-14.383 11.611,-19.832 2.893,-2.652 6.979,-4.435 9.367,-7.693 2.493,-3.411 2.683,-7.494 3.606,-11.363 2.493,-10.527 4.942,-22.718 10.85,-32.04 5.449,-8.679 17.142,-17.89 27.386,-17.867 -4.086,2.294 -8.472,4.561 -11.443,8.476 -3.955,5.175 0.209,7.099 0.209,12.424 2.809,0.38 4.948,-1.423 7.842,-0.862 -0.086,1.835 -0.064,3.811 0.668,5.352 4.924,-1.348 5.572,0.348 8.002,3.955 2.111,3.138 5.319,4.388 7.433,7.099 -6.864,7.882 8.465,8.715 13.807,9.076 2.291,3.178 4.047,6.451 4.597,10.368 0.647,4.671 -0.658,7.892 2.59,11.843 2.601,3.162 6.685,4.92 8.51,8.487 1.17,2.296 1.655,2.716 0.731,5.525 -1.11,3.404 -0.877,1.488 -3.355,3.182 -13.338,9.073 -31.403,7.816 -40.553,22.223 -1.469,2.327 -2.061,5.531 -4.868,7.119 -2.425,1.393 -5.972,0.572 -8.461,2.119 -2.597,1.593 -4.862,4.679 -6.959,6.941 -2.425,2.643 -3.056,6.348 -5.483,7.908 C 32.624,1.286 26.801,0.516 23.468,2.008 22.23,2.545 20.746,3.587 19.569,4.087 17.891,4.807 17.182,4.902 15.462,5.45 10.395,7.067 2.979,5.19 0,0" /></g><g
             transform="translate(1264.3301,1584.5625)"
             id="g78"><path
               inkscape:connector-curvature="0"
               id="path80"
               style="fill:#94a0ce;fill-opacity:1;fill-rule:nonzero;stroke:none"
               d="m 0,0 c -1.4,-3.883 -3.033,-8.909 -3.355,-12.997 -0.291,-3.646 0.822,-7.248 -0.123,-11.839 -1.547,-7.66 -4.231,-18.2 1.632,-23.651 3.016,-2.832 5.323,-3.705 6.955,-7.398 1.829,-4.229 3.148,-4.636 5.87,-8.088 2.156,-2.747 2.664,-7.298 4.02,-10.472 1.298,-3.048 3.185,-5.056 4.989,-7.697 0.688,-0.639 1.399,-1.072 2.491,-1.11 0.126,2.555 0.607,1.304 1.951,2.374 1.486,-2.201 4.166,-4.852 6.535,-5.37 -0.295,1.627 -2.746,5.739 -4.773,6.583 -2.346,0.967 -3.844,-0.795 -6.516,-0.068 -1.41,5.106 -4.008,7.938 -2.494,13.784 0.748,2.778 2.806,3.297 0.771,5.952 -1.316,1.768 -4.289,1.857 -6.28,1.718 0.725,6.048 5.024,8.786 7.221,14.313 -2.175,-0.209 -4.313,0.93 -6.219,1.492 0.415,-4.928 -5.28,-8.519 -8.696,-4.562 -2.139,2.488 -1.155,10.59 0.128,13.673 1.149,2.764 4.628,7.665 6.497,10.049 2.339,3.025 6.347,5.704 10.372,4.783 0.56,-2.307 0.665,-2.24 2.514,-2.993 0.057,-0.27 0.124,-0.555 0.164,-0.838 2.621,0.965 7.643,-1.013 8.403,-4.062 0.793,-3.143 -2.579,-7.133 -1.948,-10.923 0.77,-0.134 1.609,-0.139 2.359,0.018 1.366,5.142 1.197,12.794 4.198,17.266 2.238,3.331 3.707,2.311 6.871,3.593 2.809,1.168 3.81,2.493 5.846,4.624 1.779,1.89 3.416,4.435 5.506,6.388 2.306,2.17 3.229,2.246 6.076,3.491 4.803,2.066 7.277,7.329 13.919,6.401 0.063,-1.213 0.94,-1.797 1.187,-2.728 2.725,1.299 7.441,1.918 9.325,3.924 -2.052,1.32 -4.97,2.015 -7.018,3.842 0.71,0.679 1.132,2.224 1.887,2.927 -1.679,0.061 -3.378,0.667 -4.38,1.596 2.455,4.68 12.236,-0.134 16.429,2.914 1.992,-3.229 -2.055,-4.532 -2.855,-7.353 2.557,0.26 5.871,-2.764 8.111,-1.506 2.742,1.552 0.213,5.338 -2.116,6.438 1.737,4.825 3.854,6.357 1.001,11.517 -2.488,4.528 -2.239,5.375 -2.639,10.735 -4.857,-1.924 -6.365,-7.081 -5.927,0.667 0.356,5.586 0.315,6.087 -5.34,7.421 -3.353,-3.872 -6.873,-16.927 -13.952,-13.956 -0.721,-3.093 -2.29,-6.006 -4.654,-7.989 -2.178,2.494 0.665,3.489 0.961,6.077 0.277,2.668 -1.236,3.394 -1.55,5.324 -0.52,3.4 -0.065,9.152 3.623,12.033 3.586,2.786 9.393,2.412 13.576,3.452 3.499,0.899 10.42,1.095 12.677,4.013 -0.544,1.281 -0.523,1.64 -0.754,2.614 -2.093,1.291 -2.071,3.662 -2.554,5.93 -0.755,-0.75 -1.823,-0.779 -2.578,-1.895 -4.171,2.643 -6.219,-0.748 -10.349,-0.463 0.482,1.819 1.7,4.004 1.199,5.907 1.947,4.724 6.679,6.798 9.326,10.945 -0.344,0.347 -0.682,0.585 -1.122,0.73 C 81.042,75.854 75.863,73.856 70.746,71.604 40.836,56.035 11.711,32.256 0,0" /></g><g
             transform="translate(1290.3916,1541.1602)"
             id="g82"><path
               inkscape:connector-curvature="0"
               id="path84"
               style="fill:#94a0ce;fill-opacity:1;fill-rule:nonzero;stroke:none"
               d="m 0,0 c 3.124,-2.219 9.366,-5.925 7.647,-10.478 1.256,-0.567 2.912,-0.748 4.272,-0.433 C 11.567,-6.942 4.732,2.453 0.501,0" /></g><g
             transform="translate(1305.875,1524.1992)"
             id="g86"><path
               inkscape:connector-curvature="0"
               id="path88"
               style="fill:#94a0ce;fill-opacity:1;fill-rule:nonzero;stroke:none"
               d="M 0,0 C -0.586,-0.157 -0.94,0 -1.131,0.493 0.123,1.95 1.93,2.614 3.478,3.558 5.719,1.319 10.287,2.009 10.895,-1.384 7.483,-1.608 2.887,-0.726 -0.522,0" /></g><g
             transform="translate(1378.7051,1651.4092)"
             id="g90"><path
               inkscape:connector-curvature="0"
               id="path92"
               style="fill:#94a0ce;fill-opacity:1;fill-rule:nonzero;stroke:none"
               d="m 0,0 c -6.162,-0.943 -0.039,-4.148 1.131,-5.822 1.041,-1.531 1.779,-6.829 1.361,-9.135 -0.715,-3.768 -2.453,-3.684 -3.494,-7.481 -0.906,-3.353 -0.281,-6.437 2.633,-8.38 6.748,-4.498 5.639,6.329 10.726,9.024 4.364,2.29 14.393,3.099 16.531,8.237 -5.365,-0.922 -1.324,5.965 -1.447,8.571 -0.21,4.499 -0.293,7.015 -5.003,8.02 -5.425,1.138 -20.12,1.505 -23.44,-3.526" /></g><g
             transform="translate(1414.1094,1625.9922)"
             id="g94"><path
               inkscape:connector-curvature="0"
               id="path96"
               style="fill:#94a0ce;fill-opacity:1;fill-rule:nonzero;stroke:none"
               d="M 0,0 C -2.133,-0.406 -3.703,0.56 -4.547,2.493 -2.639,4.048 0.523,3.556 2.916,4.926 3.354,4.686 5.088,3.331 5.447,2.927 5.301,-0.506 2.07,-2.773 -1.008,-0.509" /></g><g
             transform="translate(1366.2158,1629.4717)"
             id="g98"><path
               inkscape:connector-curvature="0"
               id="path100"
               style="fill:#94a0ce;fill-opacity:1;fill-rule:nonzero;stroke:none"
               d="m 0,0 c -0.776,1.356 -2.324,3.355 -2.515,4.981 -0.214,1.758 1.969,2.836 1.577,4.483 -0.422,1.821 -6.732,6.184 -0.501,7.458 -0.044,-0.638 0.625,-1.963 0.516,-2.905 0.524,0.233 1.802,0.172 2.324,0.39 0,-3.653 3.334,-2.593 3.671,-5.039 C 5.472,5.916 1.671,4.252 1.046,0.987" /></g><g
             transform="translate(1357.25,1628.4766)"
             id="g102"><path
               inkscape:connector-curvature="0"
               id="path104"
               style="fill:#94a0ce;fill-opacity:1;fill-rule:nonzero;stroke:none"
               d="m 0,0 c -0.168,-0.63 -0.044,-0.931 -0.527,-1.325 -0.287,4.373 0.4,6.679 4.9,4.363 3.445,-4.17 -3.708,-3.883 -4.879,-5.522" /></g><g
             transform="translate(1504.4941,1571.9248)"
             id="g106"><path
               inkscape:connector-curvature="0"
               id="path108"
               style="fill:#94a0ce;fill-opacity:1;fill-rule:nonzero;stroke:none"
               d="m 0,0 c -0.04,-2.326 0.714,-4.337 0.337,-6.731 -3.249,-1.423 -10.288,-0.013 -13.491,1.511 -5.215,2.503 -2.767,9.607 -9.364,8.912 -8.531,-0.884 -14.84,-11.509 -23.867,-9.922 -0.649,0.882 -0.649,1.521 -0.594,1.911 v 0.492 c 4.381,3.223 6.564,1.677 7.504,8.011 0.248,1.537 -0.293,3.73 -0.021,5.491 0.381,2.593 3.144,3.016 0.572,5.869 3.371,0.581 4.582,2.614 7.059,3.959 2.031,1.133 -0.025,1.881 2.744,1.634 0.317,-0.024 2.781,-2.621 3.125,-2.899 3.703,-3.086 14.452,-5.502 9.021,-10.975 3.985,0 3.907,5.823 3.838,8.782 -4.401,1.549 -12.358,3.728 -14.328,8.007 4.379,0.841 9.742,-3.169 13.529,-4.812 1.053,-0.469 2.579,0.032 3.479,-0.963 1.152,-1.206 -0.063,-3.003 0.968,-4.036 1.569,-1.565 5.009,-2.239 6.825,-3.542 0.464,3.916 -3.053,6.446 -3.309,9.84 3.773,2.006 -3.501,10.951 -5.048,13.949 2.58,0.004 4.548,1.293 4.548,4.049 2.848,-1.954 6.453,-4.08 9.258,-6.086 4.044,-2.854 3.038,-6.013 -2.259,-3.894 -2.79,-2.613 -2.225,-6.687 -4.151,-9.939 1.614,-2.205 3.185,-5.464 6.038,-5.997 4.103,-0.76 5.071,3.798 7.888,4.45 C 12.044,12.758 17.327,6.677 15.485,2.682 12.957,-3.016 4.732,-1.371 0,0 m -5.993,-164.385 c 8.27,-0.699 15.961,10.317 20.369,16.023 5.673,7.291 11.583,14.339 15.873,22.708 9.749,19.115 8.621,38.951 13.562,59.355 2.434,9.904 4.531,25.477 0.871,35.002 -1.185,-2.248 -2.048,-6.034 -3.849,-7.886 -2.769,4.306 -3.859,7.99 -5.912,12.895 -2.301,5.713 -6.944,10.735 -10.116,16.33 6.479,-5.881 13.112,-14.81 15.547,-23.341 -0.211,5.916 0.414,14.701 -1.131,21.394 -0.949,4.088 -2.603,12.832 -6.011,15.495 -3.171,-1.635 -5.688,3.133 -7.316,5.476 1.662,-0.725 3.583,-1.42 5.235,-0.943 -0.812,1.887 -0.788,4 -0.835,6.177 -18.685,35.791 -50.994,63.368 -90.05,75.842 2.914,-6.195 8.552,-9.578 10.715,-16.04 -4.324,-1.745 -11.127,3.064 -14.273,-0.186 -2.684,-2.777 2.578,-13.381 4.418,-16.369 -3.809,-3.473 2.807,-9.35 6.349,-9.914 0.127,1.491 0.797,2.688 0.527,4.262 3.102,-1.686 6.456,-3.604 8.521,-6.371 5.539,3.734 -2.515,10.684 -6.388,11.619 -1.17,3.316 -4.503,6.252 -4.479,9.816 3.665,-0.981 3.749,-3.228 5.74,-5.922 2.466,-3.279 3.062,-2.657 6.286,-4.955 0,0.424 0.541,1.67 0.418,2.426 1.401,0.558 1.507,0.829 2.509,1.451 1.345,-0.125 1.013,-0.18 1.991,-0.893 -4.855,-3.217 1.171,-6.528 1.537,-10.503 0.418,-4.867 -3.861,-2.89 -5.701,-7.405 -3.123,0.196 -5.43,4.867 -8.301,6.38 -0.332,-3.145 2.647,-4.448 3.962,-6.95 -2.346,-3.594 -1.633,-6.58 -3.546,-10.488 -1.315,-2.688 -1.379,-1.923 -2.886,-3.578 -1.385,-1.559 -2.702,-0.205 -3.016,-2.832 7.646,-0.524 6.303,-3.809 8.966,-9.051 -2.551,-2.464 -8.443,-1.463 -11.959,-2.069 -1.24,-3.22 1.985,-8.865 3.416,-11.903 1.776,-3.812 -0.131,-1.505 3.392,-3.603 1.858,-1.1 4.579,0.061 4.079,-2.374 l 0.5,-1.489 c -1.168,-3.99 -4.517,-7.32 -5.507,-10.99 -0.394,-1.625 0.759,-4.387 0.377,-5.586 -0.479,-1.895 -1.717,-2.15 -2.841,-3.886 -3.148,-4.905 -8.432,-13.007 -8.596,-18.832 -0.1,-3.241 3.039,-6.432 3.101,-10.093 0.086,-4.748 -2.076,-7.697 -1.11,-11.636 1.32,-5.352 9.931,-14.007 14.6,-16.824 2.078,-1.258 6.117,-4.604 8.449,-5.002 2.324,-0.386 9.533,2.197 12.004,3.013 7.271,2.416 12.779,12.412 19.568,4.08 4.153,-0.293 6.81,2.492 7.856,-2.56 0.838,-4.156 -2.809,-7.138 -1.362,-11.389 2.387,-7.158 6.838,-11.781 5.826,-20.553 -0.49,-4.584 -2.287,-7.15 -4.087,-11.366 -1.615,-3.699 -1.362,-7.235 -1.339,-11.598 0,-4.239 -0.276,-8.374 -1.659,-12.547 -1.19,-3.776 -4.205,-8.005 -4.294,-11.817" /></g><g
             transform="translate(1435.5625,1609.0225)"
             id="g110"><path
               inkscape:connector-curvature="0"
               id="path112"
               style="fill:#94a0ce;fill-opacity:1;fill-rule:nonzero;stroke:none"
               d="M 0,0 C 3.834,3.769 6.962,-4.409 1.114,-7.447 0.107,-5.121 0.755,-1.465 1.515,0.998" /></g><g
             transform="translate(1438.0781,1616.9912)"
             id="g114"><path
               inkscape:connector-curvature="0"
               id="path116"
               style="fill:#94a0ce;fill-opacity:1;fill-rule:nonzero;stroke:none"
               d="m 0,0 c -1.484,-2.59 3.203,-5.683 5.049,-7.473 3.353,-3.234 4.339,-5.599 3.001,-9.832 1.524,1.485 5.192,3.245 6.009,5.213 1.779,4.209 -0.567,1.49 -2.724,3.475 C 7.52,-5.168 5.03,-3.311 2.87,1.421 0.563,1.807 -1.57,0.741 -1.484,-1.489" /></g></g></g></g></g><g
     inkscape:groupmode="layer"
     id="layer1"
     inkscape:label="Border" /></svg>